<mxfile host="app.diagrams.net" agent="Mozilla/5.0 (Windows NT 10.0; Win64; x64; rv:144.0) Gecko/20100101 Firefox/144.0" version="28.2.8">
  <diagram name="Page-1" id="hWtZyON9EsQEJG70EDWs">
    <mxGraphModel dx="1375" dy="872" grid="1" gridSize="10" guides="1" tooltips="1" connect="1" arrows="1" fold="1" page="1" pageScale="1" pageWidth="850" pageHeight="1100" math="0" shadow="0">
      <root>
        <mxCell id="0" />
        <mxCell id="1" parent="0" />
        <mxCell id="title" value="Property Booking Process Flowchart" style="text;html=1;strokeColor=none;fillColor=none;align=center;verticalAlign=middle;whiteSpace=wrap;rounded=0;fontSize=18;fontStyle=1" parent="1" vertex="1">
          <mxGeometry x="225" y="20" width="400" height="30" as="geometry" />
        </mxCell>
        <mxCell id="start" value="Start" style="ellipse;whiteSpace=wrap;html=1;fillColor=#d5e8d4;strokeColor=#82b366;fontStyle=1" parent="1" vertex="1">
          <mxGeometry x="365" y="70" width="120" height="60" as="geometry" />
        </mxCell>
        <mxCell id="step1" value="User selects property&#xa;and desired dates" style="rounded=1;whiteSpace=wrap;html=1;fillColor=#dae8fc;strokeColor=#6c8ebf;" parent="1" vertex="1">
          <mxGeometry x="340" y="160" width="170" height="60" as="geometry" />
        </mxCell>
        <mxCell id="decision1" value="Is user&#xa;logged in?" style="rhombus;whiteSpace=wrap;html=1;fillColor=#fff2cc;strokeColor=#d6b656;" parent="1" vertex="1">
          <mxGeometry x="350" y="250" width="150" height="100" as="geometry" />
        </mxCell>
        <mxCell id="step2" value="Redirect to login page" style="rounded=1;whiteSpace=wrap;html=1;fillColor=#f8cecc;strokeColor=#b85450;" parent="1" vertex="1">
          <mxGeometry x="550" y="270" width="140" height="60" as="geometry" />
        </mxCell>
        <mxCell id="step3" value="User enters&#xa;number of guests" style="rounded=1;whiteSpace=wrap;html=1;fillColor=#dae8fc;strokeColor=#6c8ebf;" parent="1" vertex="1">
          <mxGeometry x="340" y="380" width="170" height="60" as="geometry" />
        </mxCell>
        <mxCell id="decision2" value="Guest count&#xa;&lt;= max&#xa;capacity?" style="rhombus;whiteSpace=wrap;html=1;fillColor=#fff2cc;strokeColor=#d6b656;" parent="1" vertex="1">
          <mxGeometry x="350" y="470" width="150" height="100" as="geometry" />
        </mxCell>
        <mxCell id="error1" value="Display error:&#xa;&quot;Too many guests&quot;" style="rounded=1;whiteSpace=wrap;html=1;fillColor=#f8cecc;strokeColor=#b85450;" parent="1" vertex="1">
          <mxGeometry x="160" y="490" width="140" height="60" as="geometry" />
        </mxCell>
        <mxCell id="step4" value="System checks&#xa;property availability" style="rounded=1;whiteSpace=wrap;html=1;fillColor=#e1d5e7;strokeColor=#9673a6;" parent="1" vertex="1">
          <mxGeometry x="340" y="600" width="170" height="60" as="geometry" />
        </mxCell>
        <mxCell id="decision3" value="Property&#xa;available?" style="rhombus;whiteSpace=wrap;html=1;fillColor=#fff2cc;strokeColor=#d6b656;" parent="1" vertex="1">
          <mxGeometry x="350" y="690" width="150" height="100" as="geometry" />
        </mxCell>
        <mxCell id="error2" value="Display error:&#xa;&quot;Property not available&#xa;for these dates&quot;" style="rounded=1;whiteSpace=wrap;html=1;fillColor=#f8cecc;strokeColor=#b85450;" parent="1" vertex="1">
          <mxGeometry x="160" y="700" width="150" height="80" as="geometry" />
        </mxCell>
        <mxCell id="step5" value="System calculates&#xa;total price" style="rounded=1;whiteSpace=wrap;html=1;fillColor=#e1d5e7;strokeColor=#9673a6;" parent="1" vertex="1">
          <mxGeometry x="340" y="820" width="170" height="60" as="geometry" />
        </mxCell>
        <mxCell id="step6" value="Display price breakdown&#xa;to user" style="rounded=1;whiteSpace=wrap;html=1;fillColor=#dae8fc;strokeColor=#6c8ebf;" parent="1" vertex="1">
          <mxGeometry x="340" y="910" width="170" height="60" as="geometry" />
        </mxCell>
        <mxCell id="decision4" value="User&#xa;confirms&#xa;booking?" style="rhombus;whiteSpace=wrap;html=1;fillColor=#fff2cc;strokeColor=#d6b656;" parent="1" vertex="1">
          <mxGeometry x="350" y="1000" width="150" height="100" as="geometry" />
        </mxCell>
        <mxCell id="cancel" value="Cancel / Return" style="ellipse;whiteSpace=wrap;html=1;fillColor=#f8cecc;strokeColor=#b85450;fontStyle=1" parent="1" vertex="1">
          <mxGeometry x="560" y="1020" width="120" height="60" as="geometry" />
        </mxCell>
        <mxCell id="step7" value="Create booking record&#xa;(status: pending)" style="rounded=1;whiteSpace=wrap;html=1;fillColor=#e1d5e7;strokeColor=#9673a6;" parent="1" vertex="1">
          <mxGeometry x="340" y="1130" width="170" height="60" as="geometry" />
        </mxCell>
        <mxCell id="step8" value="Redirect to&#xa;payment page" style="rounded=1;whiteSpace=wrap;html=1;fillColor=#dae8fc;strokeColor=#6c8ebf;" parent="1" vertex="1">
          <mxGeometry x="340" y="1220" width="170" height="60" as="geometry" />
        </mxCell>
        <mxCell id="step9" value="User enters&#xa;payment details" style="rounded=1;whiteSpace=wrap;html=1;fillColor=#dae8fc;strokeColor=#6c8ebf;" parent="1" vertex="1">
          <mxGeometry x="340" y="1310" width="170" height="60" as="geometry" />
        </mxCell>
        <mxCell id="step10" value="Send payment request&#xa;to Payment Gateway" style="rounded=1;whiteSpace=wrap;html=1;fillColor=#e1d5e7;strokeColor=#9673a6;" parent="1" vertex="1">
          <mxGeometry x="340" y="1400" width="170" height="60" as="geometry" />
        </mxCell>
        <mxCell id="decision5" value="Payment&#xa;successful?" style="rhombus;whiteSpace=wrap;html=1;fillColor=#fff2cc;strokeColor=#d6b656;" parent="1" vertex="1">
          <mxGeometry x="350" y="1490" width="150" height="100" as="geometry" />
        </mxCell>
        <mxCell id="error3" value="Display error:&#xa;&quot;Payment failed&quot;&#xa;Retry or cancel" style="rounded=1;whiteSpace=wrap;html=1;fillColor=#f8cecc;strokeColor=#b85450;" parent="1" vertex="1">
          <mxGeometry x="150" y="1505" width="150" height="70" as="geometry" />
        </mxCell>
        <mxCell id="step11" value="Update booking status&#xa;to &quot;confirmed&quot;" style="rounded=1;whiteSpace=wrap;html=1;fillColor=#e1d5e7;strokeColor=#9673a6;" parent="1" vertex="1">
          <mxGeometry x="340" y="1620" width="170" height="60" as="geometry" />
        </mxCell>
        <mxCell id="step12" value="Store payment&#xa;transaction" style="rounded=1;whiteSpace=wrap;html=1;fillColor=#e1d5e7;strokeColor=#9673a6;" parent="1" vertex="1">
          <mxGeometry x="340" y="1710" width="170" height="60" as="geometry" />
        </mxCell>
        <mxCell id="step13" value="Send booking&#xa;confirmation email&#xa;to guest" style="rounded=1;whiteSpace=wrap;html=1;fillColor=#e1d5e7;strokeColor=#9673a6;" parent="1" vertex="1">
          <mxGeometry x="340" y="1800" width="170" height="70" as="geometry" />
        </mxCell>
        <mxCell id="step14" value="Send booking&#xa;notification to host" style="rounded=1;whiteSpace=wrap;html=1;fillColor=#e1d5e7;strokeColor=#9673a6;" parent="1" vertex="1">
          <mxGeometry x="340" y="1900" width="170" height="60" as="geometry" />
        </mxCell>
        <mxCell id="step15" value="Display success message:&#xa;&quot;Booking confirmed!&quot;" style="rounded=1;whiteSpace=wrap;html=1;fillColor=#d5e8d4;strokeColor=#82b366;" parent="1" vertex="1">
          <mxGeometry x="340" y="1990" width="170" height="60" as="geometry" />
        </mxCell>
        <mxCell id="end" value="End" style="ellipse;whiteSpace=wrap;html=1;fillColor=#d5e8d4;strokeColor=#82b366;fontStyle=1" parent="1" vertex="1">
          <mxGeometry x="365" y="2080" width="120" height="60" as="geometry" />
        </mxCell>
        <mxCell id="conn1" value="" style="endArrow=classic;html=1;rounded=0;" parent="1" source="start" target="step1" edge="1">
          <mxGeometry width="50" height="50" relative="1" as="geometry">
            <mxPoint x="400" y="400" as="sourcePoint" />
            <mxPoint x="450" y="350" as="targetPoint" />
          </mxGeometry>
        </mxCell>
        <mxCell id="conn2" value="" style="endArrow=classic;html=1;rounded=0;" parent="1" source="step1" target="decision1" edge="1">
          <mxGeometry width="50" height="50" relative="1" as="geometry">
            <mxPoint x="400" y="400" as="sourcePoint" />
            <mxPoint x="450" y="350" as="targetPoint" />
          </mxGeometry>
        </mxCell>
        <mxCell id="conn3-no" value="No" style="endArrow=classic;html=1;rounded=0;" parent="1" source="decision1" target="step2" edge="1">
          <mxGeometry width="50" height="50" relative="1" as="geometry">
            <mxPoint x="510" y="300" as="sourcePoint" />
            <mxPoint x="550" y="300" as="targetPoint" />
          </mxGeometry>
        </mxCell>
        <mxCell id="conn3-loop" value="" style="endArrow=classic;html=1;rounded=0;exitX=1;exitY=0.5;entryX=1;entryY=0.5;" parent="1" source="step2" target="step1" edge="1">
          <mxGeometry width="50" height="50" relative="1" as="geometry">
            <mxPoint x="700" y="300" as="sourcePoint" />
            <mxPoint x="700" y="190" as="targetPoint" />
            <Array as="points">
              <mxPoint x="720" y="300" />
              <mxPoint x="720" y="190" />
            </Array>
          </mxGeometry>
        </mxCell>
        <mxCell id="conn4-yes" value="Yes" style="endArrow=classic;html=1;rounded=0;" parent="1" source="decision1" target="step3" edge="1">
          <mxGeometry width="50" height="50" relative="1" as="geometry">
            <mxPoint x="425" y="360" as="sourcePoint" />
            <mxPoint x="425" y="380" as="targetPoint" />
          </mxGeometry>
        </mxCell>
        <mxCell id="conn5" value="" style="endArrow=classic;html=1;rounded=0;" parent="1" source="step3" target="decision2" edge="1">
          <mxGeometry width="50" height="50" relative="1" as="geometry">
            <mxPoint x="400" y="600" as="sourcePoint" />
            <mxPoint x="450" y="550" as="targetPoint" />
          </mxGeometry>
        </mxCell>
        <mxCell id="conn6-no" value="No" style="endArrow=classic;html=1;rounded=0;" parent="1" source="decision2" target="error1" edge="1">
          <mxGeometry width="50" height="50" relative="1" as="geometry">
            <mxPoint x="340" y="520" as="sourcePoint" />
            <mxPoint x="310" y="520" as="targetPoint" />
          </mxGeometry>
        </mxCell>
        <mxCell id="conn6-loop" value="" style="endArrow=classic;html=1;rounded=0;exitX=0;exitY=0.5;entryX=0;entryY=0.5;" parent="1" source="error1" target="step3" edge="1">
          <mxGeometry width="50" height="50" relative="1" as="geometry">
            <mxPoint x="140" y="520" as="sourcePoint" />
            <mxPoint x="140" y="410" as="targetPoint" />
            <Array as="points">
              <mxPoint x="120" y="520" />
              <mxPoint x="120" y="410" />
            </Array>
          </mxGeometry>
        </mxCell>
        <mxCell id="conn7-yes" value="Yes" style="endArrow=classic;html=1;rounded=0;" parent="1" source="decision2" target="step4" edge="1">
          <mxGeometry width="50" height="50" relative="1" as="geometry">
            <mxPoint x="425" y="580" as="sourcePoint" />
            <mxPoint x="425" y="600" as="targetPoint" />
          </mxGeometry>
        </mxCell>
        <mxCell id="conn8" value="" style="endArrow=classic;html=1;rounded=0;" parent="1" source="step4" target="decision3" edge="1">
          <mxGeometry width="50" height="50" relative="1" as="geometry">
            <mxPoint x="400" y="800" as="sourcePoint" />
            <mxPoint x="450" y="750" as="targetPoint" />
          </mxGeometry>
        </mxCell>
        <mxCell id="conn9-no" value="No" style="endArrow=classic;html=1;rounded=0;" parent="1" source="decision3" target="error2" edge="1">
          <mxGeometry width="50" height="50" relative="1" as="geometry">
            <mxPoint x="340" y="740" as="sourcePoint" />
            <mxPoint x="310" y="740" as="targetPoint" />
          </mxGeometry>
        </mxCell>
        <mxCell id="conn9-loop" value="" style="endArrow=classic;html=1;rounded=0;exitX=0.5;exitY=0;entryX=0;entryY=0.5;" parent="1" source="error2" target="step1" edge="1">
          <mxGeometry width="50" height="50" relative="1" as="geometry">
            <mxPoint x="80" y="700" as="sourcePoint" />
            <mxPoint x="80" y="190" as="targetPoint" />
            <Array as="points">
              <mxPoint x="235" y="680" />
              <mxPoint x="80" y="680" />
              <mxPoint x="80" y="190" />
            </Array>
          </mxGeometry>
        </mxCell>
        <mxCell id="conn10-yes" value="Yes" style="endArrow=classic;html=1;rounded=0;" parent="1" source="decision3" target="step5" edge="1">
          <mxGeometry width="50" height="50" relative="1" as="geometry">
            <mxPoint x="425" y="800" as="sourcePoint" />
            <mxPoint x="425" y="820" as="targetPoint" />
          </mxGeometry>
        </mxCell>
        <mxCell id="conn11" value="" style="endArrow=classic;html=1;rounded=0;" parent="1" source="step5" target="step6" edge="1">
          <mxGeometry width="50" height="50" relative="1" as="geometry">
            <mxPoint x="400" y="1000" as="sourcePoint" />
            <mxPoint x="450" y="950" as="targetPoint" />
          </mxGeometry>
        </mxCell>
        <mxCell id="conn12" value="" style="endArrow=classic;html=1;rounded=0;" parent="1" source="step6" target="decision4" edge="1">
          <mxGeometry width="50" height="50" relative="1" as="geometry">
            <mxPoint x="400" y="1100" as="sourcePoint" />
            <mxPoint x="450" y="1050" as="targetPoint" />
          </mxGeometry>
        </mxCell>
        <mxCell id="conn13-no" value="No" style="endArrow=classic;html=1;rounded=0;" parent="1" source="decision4" target="cancel" edge="1">
          <mxGeometry width="50" height="50" relative="1" as="geometry">
            <mxPoint x="510" y="1050" as="sourcePoint" />
            <mxPoint x="560" y="1050" as="targetPoint" />
          </mxGeometry>
        </mxCell>
        <mxCell id="conn14-yes" value="Yes" style="endArrow=classic;html=1;rounded=0;" parent="1" source="decision4" target="step7" edge="1">
          <mxGeometry width="50" height="50" relative="1" as="geometry">
            <mxPoint x="425" y="1110" as="sourcePoint" />
            <mxPoint x="425" y="1130" as="targetPoint" />
          </mxGeometry>
        </mxCell>
        <mxCell id="conn15" value="" style="endArrow=classic;html=1;rounded=0;" parent="1" source="step7" target="step8" edge="1">
          <mxGeometry width="50" height="50" relative="1" as="geometry">
            <mxPoint x="400" y="1300" as="sourcePoint" />
            <mxPoint x="450" y="1250" as="targetPoint" />
          </mxGeometry>
        </mxCell>
        <mxCell id="conn16" value="" style="endArrow=classic;html=1;rounded=0;" parent="1" source="step8" target="step9" edge="1">
          <mxGeometry width="50" height="50" relative="1" as="geometry">
            <mxPoint x="400" y="1400" as="sourcePoint" />
            <mxPoint x="450" y="1350" as="targetPoint" />
          </mxGeometry>
        </mxCell>
        <mxCell id="conn17" value="" style="endArrow=classic;html=1;rounded=0;" parent="1" source="step9" target="step10" edge="1">
          <mxGeometry width="50" height="50" relative="1" as="geometry">
            <mxPoint x="400" y="1500" as="sourcePoint" />
            <mxPoint x="450" y="1450" as="targetPoint" />
          </mxGeometry>
        </mxCell>
        <mxCell id="conn18" value="" style="endArrow=classic;html=1;rounded=0;" parent="1" source="step10" target="decision5" edge="1">
          <mxGeometry width="50" height="50" relative="1" as="geometry">
            <mxPoint x="400" y="1600" as="sourcePoint" />
            <mxPoint x="450" y="1550" as="targetPoint" />
          </mxGeometry>
        </mxCell>
        <mxCell id="conn19-no" value="No" style="endArrow=classic;html=1;rounded=0;" parent="1" source="decision5" target="error3" edge="1">
          <mxGeometry width="50" height="50" relative="1" as="geometry">
            <mxPoint x="340" y="1540" as="sourcePoint" />
            <mxPoint x="310" y="1540" as="targetPoint" />
          </mxGeometry>
        </mxCell>
        <mxCell id="conn19-loop" value="" style="endArrow=classic;html=1;rounded=0;exitX=0.5;exitY=0;entryX=0;entryY=0.5;" parent="1" source="error3" target="step9" edge="1">
          <mxGeometry width="50" height="50" relative="1" as="geometry">
            <mxPoint x="60" y="1500" as="sourcePoint" />
            <mxPoint x="60" y="1340" as="targetPoint" />
            <Array as="points">
              <mxPoint x="225" y="1480" />
              <mxPoint x="60" y="1480" />
              <mxPoint x="60" y="1340" />
            </Array>
          </mxGeometry>
        </mxCell>
        <mxCell id="conn20-yes" value="Yes" style="endArrow=classic;html=1;rounded=0;" parent="1" source="decision5" target="step11" edge="1">
          <mxGeometry width="50" height="50" relative="1" as="geometry">
            <mxPoint x="425" y="1600" as="sourcePoint" />
            <mxPoint x="425" y="1620" as="targetPoint" />
          </mxGeometry>
        </mxCell>
        <mxCell id="conn21" value="" style="endArrow=classic;html=1;rounded=0;" parent="1" source="step11" target="step12" edge="1">
          <mxGeometry width="50" height="50" relative="1" as="geometry">
            <mxPoint x="400" y="1800" as="sourcePoint" />
            <mxPoint x="450" y="1750" as="targetPoint" />
          </mxGeometry>
        </mxCell>
        <mxCell id="conn22" value="" style="endArrow=classic;html=1;rounded=0;" parent="1" source="step12" target="step13" edge="1">
          <mxGeometry width="50" height="50" relative="1" as="geometry">
            <mxPoint x="400" y="1900" as="sourcePoint" />
            <mxPoint x="450" y="1850" as="targetPoint" />
          </mxGeometry>
        </mxCell>
        <mxCell id="conn23" value="" style="endArrow=classic;html=1;rounded=0;" parent="1" source="step13" target="step14" edge="1">
          <mxGeometry width="50" height="50" relative="1" as="geometry">
            <mxPoint x="400" y="2000" as="sourcePoint" />
            <mxPoint x="450" y="1950" as="targetPoint" />
          </mxGeometry>
        </mxCell>
        <mxCell id="conn24" value="" style="endArrow=classic;html=1;rounded=0;" parent="1" source="step14" target="step15" edge="1">
          <mxGeometry width="50" height="50" relative="1" as="geometry">
            <mxPoint x="400" y="2100" as="sourcePoint" />
            <mxPoint x="450" y="2050" as="targetPoint" />
          </mxGeometry>
        </mxCell>
        <mxCell id="conn25" value="" style="endArrow=classic;html=1;rounded=0;" parent="1" source="step15" target="end" edge="1">
          <mxGeometry width="50" height="50" relative="1" as="geometry">
            <mxPoint x="400" y="2200" as="sourcePoint" />
            <mxPoint x="450" y="2150" as="targetPoint" />
          </mxGeometry>
        </mxCell>
      </root>
    </mxGraphModel>
  </diagram>
</mxfile>
